# xmcd
#
# Track frame offsets:
#	150
#	12135
#	23333
#	34656
#	45693
#	57619
#	69248
#	79371
#	89196
#	100053
#
# Disc length: 1466 seconds
#
# Revision: 1
# Processed by: cddbd v1.5.2PL0 Copyright (c) Steve Scherf et al.
# Submitted via: EZCDAudioConverter 2.8.0.1
#
DISCID=7905b80a
DTITLE=Stonewall Jackson - The Exiting
DYEAR=1966
DGENRE=Country
TTITLE0=Don't Be Angry
TTITLE1=Tears On Her Bridal Bouquet
TTITLE2=I'm Gonna Find You
TTITLE3=(You're Right) I Need You Real Bad
TTITLE4=A Little Guy Called Joe
TTITLE5=A Broken Heart  A Wedding Band
TTITLE6=Grieving In My Heart
TTITLE7=Misery Known As Heartache
TTITLE8=Wedding Bells For You And Him
TTITLE9=Knock Off Your Naggin'
EXTD=
EXTT0=
EXTT1=
EXTT2=
EXTT3=
EXTT4=
EXTT5=
EXTT6=
EXTT7=
EXTT8=
EXTT9=
PLAYORDER=
